<?xml version="1.0" standalone="no"?>
<!DOCTYPE svg PUBLIC "-//W3C//DTD SVG 20010904//EN"
 "http://www.w3.org/TR/2001/REC-SVG-20010904/DTD/svg10.dtd">
<svg version="1.0" xmlns="http://www.w3.org/2000/svg"
 width="512.000000pt" height="512.000000pt" viewBox="0 0 512.000000 512.000000"
 preserveAspectRatio="xMidYMid meet">

<g transform="translate(0.000000,512.000000) scale(0.100000,-0.100000)"
fill="#A4A8AD" stroke="none">
<path d="M725 4826 c-193 -61 -324 -222 -345 -422 -13 -118 -13 -1116 0 -1223
25 -223 195 -399 415 -431 100 -14 2222 -13 2300 1 74 14 125 39 181 91 105
97 138 272 75 401 -12 23 -93 131 -181 241 -110 137 -166 216 -182 255 -21 53
-23 75 -29 386 -4 224 -10 343 -19 370 -22 70 -57 131 -110 188 -62 68 -131
113 -211 138 -58 18 -104 19 -957 18 -696 0 -906 -3 -937 -13z m1838 -249 c47
-20 95 -64 120 -111 21 -39 22 -55 27 -371 6 -329 6 -330 34 -410 38 -109 72
-161 240 -369 79 -98 146 -189 148 -201 8 -42 -15 -89 -52 -107 -33 -17 -107
-18 -1130 -18 -712 0 -1111 4 -1140 11 -63 14 -117 55 -151 114 l-29 50 0 630
0 630 30 52 c22 39 44 61 83 83 l52 30 868 0 c705 0 874 -3 900 -13z"/>
<path d="M1603 4436 c-104 -34 -194 -114 -241 -214 -24 -50 -27 -70 -27 -157
0 -92 3 -105 32 -169 l33 -68 -28 -21 c-126 -96 -212 -253 -227 -412 -8 -81 4
-117 51 -154 51 -40 143 -21 176 38 9 14 18 55 22 89 8 81 33 138 87 197 62
67 127 97 219 103 61 3 86 0 135 -19 113 -42 205 -168 205 -280 0 -105 86
-172 174 -135 73 30 94 120 61 251 -28 110 -72 184 -159 270 l-81 81 27 49
c102 187 20 432 -178 529 -50 25 -73 30 -149 33 -57 2 -105 -2 -132 -11z m212
-278 c45 -48 52 -97 24 -155 -63 -131 -259 -86 -259 60 0 87 60 141 149 134
47 -3 59 -9 86 -39z"/>
<path d="M3764 4806 c-30 -30 -34 -40 -34 -85 0 -63 34 -107 95 -121 52 -12
768 -12 820 0 61 14 95 58 95 121 0 45 -4 55 -34 85 l-34 34 -437 0 -437 0
-34 -34z"/>
<path d="M4094 4386 c-94 -41 -102 -176 -13 -222 42 -21 557 -21 599 1 42 22
60 53 60 106 0 55 -26 94 -76 115 -47 20 -525 19 -570 0z"/>
<path d="M4090 3741 c-86 -28 -134 -56 -203 -121 -115 -107 -162 -229 -155
-397 4 -96 7 -109 46 -185 65 -132 168 -224 302 -268 88 -30 219 -30 311 -1
134 42 257 157 317 297 34 79 42 233 17 320 -51 176 -181 307 -354 358 -73 22
-210 20 -281 -3z m250 -252 c96 -43 150 -128 150 -237 0 -75 -16 -116 -65
-170 -51 -57 -112 -85 -188 -84 -74 0 -121 17 -175 66 -104 95 -111 266 -14
370 68 72 199 97 292 55z"/>
<path d="M463 2369 c-51 -15 -83 -61 -83 -121 0 -44 4 -54 34 -84 l34 -34 435
0 436 0 35 34 c32 30 36 39 36 84 0 62 -32 106 -88 122 -46 12 -794 12 -839
-1z"/>
<path d="M2584 2370 c-118 -17 -205 -63 -286 -148 -31 -32 -67 -81 -82 -110
-49 -97 -56 -152 -56 -463 0 -388 9 -360 -210 -634 -75 -93 -146 -184 -158
-202 -58 -83 -71 -213 -31 -318 30 -81 112 -163 194 -196 l60 -24 1099 -3
c688 -2 1133 1 1190 7 238 27 411 200 436 437 13 118 13 1116 0 1223 -22 194
-144 345 -331 413 l-64 23 -855 1 c-470 1 -878 -2 -906 -6z m1726 -251 c63
-14 117 -55 151 -114 l29 -50 0 -630 0 -631 -32 -54 c-25 -39 -47 -61 -88 -84
l-55 -31 -1130 0 c-1061 0 -1133 1 -1158 18 -28 18 -46 67 -39 103 2 12 74
108 159 214 251 314 254 323 262 765 6 314 7 332 28 371 37 69 91 108 178 127
44 10 1651 6 1695 -4z"/>
<path d="M3283 1966 c-226 -73 -332 -332 -225 -546 l27 -55 -81 -80 c-87 -86
-131 -160 -159 -270 -34 -135 -10 -227 67 -252 87 -29 168 40 168 142 0 52 36
138 79 187 60 67 129 101 222 106 103 6 162 -14 234 -79 67 -62 101 -130 114
-229 9 -67 14 -78 45 -107 43 -39 93 -44 144 -13 48 29 65 79 57 159 -16 161
-110 327 -234 413 l-21 15 32 69 c30 64 33 77 33 169 0 88 -3 107 -27 157 -37
80 -107 152 -187 191 -57 28 -77 32 -156 34 -55 2 -106 -3 -132 -11z m194
-256 c83 -50 83 -180 -1 -235 -35 -23 -105 -22 -145 1 -17 10 -41 37 -52 61
-28 57 -18 106 31 156 33 33 43 37 86 37 31 0 61 -7 81 -20z"/>
<path d="M454 1916 c-94 -41 -102 -176 -13 -222 22 -11 82 -14 299 -14 298 0
316 3 345 60 35 69 8 147 -61 176 -47 20 -525 19 -570 0z"/>
<path d="M730 1267 c-141 -48 -236 -132 -303 -266 l-42 -84 0 -132 0 -132 42
-85 c56 -112 129 -185 242 -241 l84 -42 132 0 132 0 85 42 c264 131 364 434
231 698 -56 109 -193 218 -317 251 -80 22 -209 18 -286 -9z m260 -248 c60 -27
98 -64 126 -124 44 -92 29 -204 -38 -279 -51 -59 -111 -86 -192 -86 -75 0
-122 18 -175 66 -80 72 -106 201 -60 299 25 53 94 117 141 132 57 18 148 15
198 -8z"/>
</g>
</svg>
