<svg xmlns="http://www.w3.org/2000/svg" xmlns:xlink="http://www.w3.org/1999/xlink" width="500" zoomAndPan="magnify" viewBox="0 0 375 374.999991" height="500" preserveAspectRatio="xMidYMid meet" version="1.0"><defs><clipPath id="72a1fb8290"><path d="M 16.558594 48.570312 L 279 48.570312 L 279 278 L 16.558594 278 Z M 16.558594 48.570312 " clip-rule="nonzero"/></clipPath><clipPath id="fc20ed2d7e"><path d="M 123 96 L 358.421875 96 L 358.421875 326 L 123 326 Z M 123 96 " clip-rule="nonzero"/></clipPath></defs><g clip-path="url(#72a1fb8290)"><path fill="#7c42fc" d="M 26.144531 48.570312 L 268.539062 48.570312 C 274.078125 48.570312 278.109375 52.601562 278.109375 58.128906 L 278.109375 208.695312 C 278.109375 213.746094 274.078125 218.253906 268.539062 218.253906 L 162.207031 218.253906 L 162.207031 199.132812 L 258.972656 199.132812 L 258.972656 67.691406 L 35.710938 67.691406 L 35.710938 199.132812 L 42.75 199.132812 C 47.808594 199.132812 52.316406 203.164062 52.316406 208.695312 L 52.316406 243.449219 L 91.613281 202.136719 C 93.117188 200.160156 96.121094 199.132812 99.199219 199.132812 L 123.390625 199.132812 L 123.390625 218.253906 L 103.230469 218.253906 L 49.789062 274.175781 C 45.757812 278.207031 39.742188 278.207031 36.191406 274.65625 C 34.207031 272.675781 33.183594 270.148438 33.183594 267.621094 L 33.183594 218.253906 L 26.144531 218.253906 C 21.085938 218.253906 16.578125 213.746094 16.578125 208.695312 L 16.578125 58.128906 C 16.578125 52.601562 21.085938 48.570312 26.144531 48.570312 Z M 26.144531 48.570312 " fill-opacity="1" fill-rule="nonzero"/></g><g clip-path="url(#fc20ed2d7e)"><path fill="#7c42fc" d="M 339.132812 115.554688 L 278.175781 115.554688 L 278.175781 96.4375 L 348.703125 96.4375 C 354.238281 96.4375 358.269531 100.945312 358.269531 105.996094 L 358.269531 256.558594 C 358.269531 261.613281 354.238281 266.121094 348.703125 266.121094 L 342.140625 266.121094 L 342.140625 315.488281 C 342.140625 318.015625 341.117188 320.539062 339.132812 322.519531 C 335.101562 326.070312 329.089844 326.070312 325.535156 322.042969 L 272.09375 266.121094 L 133.503906 266.121094 C 127.96875 266.121094 123.457031 261.613281 123.457031 256.558594 L 123.457031 105.996094 C 123.457031 100.945312 127.96875 96.4375 133.503906 96.4375 L 239.839844 96.4375 L 239.839844 115.554688 L 143.070312 115.554688 L 143.070312 247 L 276.125 247 C 279.132812 247 281.660156 248.023438 283.710938 250.550781 L 323.007812 291.316406 L 323.007812 256.558594 C 323.007812 251.027344 327.039062 247 332.574219 247 L 339.132812 247 Z M 339.132812 115.554688 " fill-opacity="1" fill-rule="nonzero"/></g><path fill="#7c42fc" d="M 162.207031 145.257812 L 181.339844 145.257812 L 181.339844 164.378906 L 162.207031 164.378906 Z M 162.207031 145.257812 " fill-opacity="1" fill-rule="nonzero"/><path fill="#7c42fc" d="M 191.453125 145.257812 L 210.589844 145.257812 L 210.589844 164.378906 L 191.453125 164.378906 Z M 191.453125 145.257812 " fill-opacity="1" fill-rule="nonzero"/><path fill="#7c42fc" d="M 220.703125 145.257812 L 239.839844 145.257812 L 239.839844 164.378906 L 220.703125 164.378906 Z M 220.703125 145.257812 " fill-opacity="1" fill-rule="nonzero"/></svg>