<?xml version="1.0" standalone="no"?>
<!DOCTYPE svg PUBLIC "-//W3C//DTD SVG 20010904//EN"
 "http://www.w3.org/TR/2001/REC-SVG-20010904/DTD/svg10.dtd">
<svg version="1.0" xmlns="http://www.w3.org/2000/svg"
 width="512.000000pt" height="512.000000pt" viewBox="0 0 512.000000 512.000000"
 preserveAspectRatio="xMidYMid meet">

<g transform="translate(0.000000,512.000000) scale(0.100000,-0.100000)"
fill="#A4A8AD" stroke="none">
<path d="M1985 4835 c-158 -44 -301 -159 -369 -296 -58 -117 -66 -161 -66
-361 l0 -178 -366 0 c-359 0 -367 0 -406 -22 -146 -82 -84 -298 86 -298 l46 0
0 -1357 c0 -1317 1 -1360 20 -1440 71 -297 297 -522 594 -593 77 -19 124 -20
1036 -20 916 0 958 1 1037 20 297 71 522 297 593 594 19 78 20 128 20 1439 l0
1357 43 0 c23 0 60 9 83 19 115 52 117 223 3 281 -36 19 -60 20 -404 20 l-365
0 0 170 c0 198 -8 247 -61 357 -70 147 -215 266 -375 307 -53 14 -138 16 -580
15 -404 -1 -530 -4 -569 -14z m1116 -328 c47 -23 103 -79 126 -126 15 -30 19
-66 21 -208 l3 -173 -690 0 -691 0 0 159 c0 93 5 172 12 192 24 73 88 138 162
166 23 9 164 11 526 10 456 -2 498 -3 531 -20z m789 -2171 c0 -1312 0 -1345
-20 -1408 -37 -121 -126 -230 -230 -283 -112 -57 -74 -55 -1080 -55 -1011 0
-967 -2 -1084 57 -64 32 -157 125 -189 189 -60 119 -57 32 -57 1501 l0 1343
1330 0 1330 0 0 -1344z"/>
<path d="M2084 3139 c-47 -14 -101 -79 -109 -131 -3 -24 -5 -432 -3 -908 l3
-865 22 -35 c32 -52 94 -84 150 -77 51 5 88 29 121 77 l22 33 0 902 0 902 -23
33 c-39 60 -118 89 -183 69z"/>
<path d="M2920 3128 c-25 -13 -55 -38 -67 -57 l-23 -34 0 -902 0 -902 23 -33
c49 -72 115 -95 193 -65 32 12 53 29 72 58 l27 41 0 901 0 902 -28 36 c-57 74
-123 93 -197 55z"/>
</g>
</svg>
